<svg data-v-423bf9ae="" xmlns="http://www.w3.org/2000/svg" viewBox="0 0 347 90" class="iconLeft"><!----><!----><!----><g data-v-423bf9ae="" id="3bfe693a-3e05-4d86-b708-8a9c8406db46" fill="#000000" transform="matrix(4.838709826275912,0,0,4.838709826275912,111.91275933499648,-3.483871928610988)"><path d="M6.68 3.82L0.06 3.82L0.06 5.09L2.64 5.09L2.64 13.15L4.13 13.15L4.13 5.09L6.68 5.09ZM13.91 9.70C13.91 7.73 12.59 6.36 10.66 6.36C8.68 6.36 7.25 7.89 7.25 9.84C7.25 11.80 8.66 13.31 10.84 13.31C11.97 13.31 12.94 12.92 13.53 12.25L12.56 11.46C12.13 11.94 11.56 12.19 10.82 12.19C9.58 12.19 8.84 11.33 8.74 10.15L13.91 10.15ZM10.66 7.50C11.70 7.50 12.37 8.12 12.51 9.17L8.79 9.17C9.00 8.17 9.68 7.50 10.66 7.50ZM14.67 12.22C15.15 12.88 16.16 13.34 17.40 13.34C19.03 13.34 20.04 12.54 20.04 11.35C20.04 9.00 16.54 9.79 16.54 8.36C16.54 7.86 16.92 7.53 17.69 7.51C18.17 7.50 18.73 7.73 19.12 8.11L19.89 7.22C19.45 6.75 18.61 6.36 17.63 6.36C16.06 6.36 15.09 7.19 15.09 8.41C15.09 10.82 18.54 10.09 18.54 11.38C18.54 11.87 18.13 12.21 17.31 12.21C16.65 12.21 16.06 11.97 15.57 11.35ZM24.53 6.53L23.11 6.53L23.11 4.64L21.71 4.64L21.71 6.53L20.84 6.53L20.84 7.67L21.71 7.67L21.71 13.15L23.13 13.15L23.11 7.67L24.53 7.67ZM31.82 13.15L33.42 13.15L29.74 3.82L28.23 3.82L24.54 13.15L26.15 13.15L27.04 10.75L30.93 10.73ZM27.48 9.57L28.99 5.45L30.49 9.57ZM37.76 6.36C36.76 6.36 36.01 6.77 35.48 7.42L35.36 6.53L34.13 6.53L34.13 16.22L35.54 16.22L35.54 12.32C36.05 12.94 36.79 13.31 37.76 13.31C39.48 13.31 40.85 12.00 40.85 9.84C40.85 7.69 39.48 6.36 37.76 6.36ZM37.42 12.12C36.18 12.12 35.38 11.14 35.38 9.84C35.38 8.55 36.18 7.55 37.42 7.55C38.62 7.55 39.40 8.55 39.40 9.84C39.40 11.14 38.62 12.12 37.42 12.12ZM48.53 9.70C48.53 7.73 47.21 6.36 45.28 6.36C43.30 6.36 41.87 7.89 41.87 9.84C41.87 11.80 43.28 13.31 45.46 13.31C46.59 13.31 47.56 12.92 48.15 12.25L47.18 11.46C46.75 11.94 46.19 12.19 45.44 12.19C44.20 12.19 43.46 11.33 43.36 10.15L48.53 10.15ZM45.28 7.50C46.32 7.50 46.99 8.12 47.13 9.17L43.41 9.17C43.62 8.17 44.30 7.50 45.28 7.50Z"></path></g><defs data-v-423bf9ae=""><linearGradient data-v-423bf9ae="" gradientTransform="rotate(25)" id="c60a2749-4f75-4a79-9438-fe9072e7dbed" x1="0%" y1="0%" x2="100%" y2="0%"><stop data-v-423bf9ae="" offset="0%" style="stop-color: rgb(40, 139, 88); stop-opacity: 1;"></stop><stop data-v-423bf9ae="" offset="100%" style="stop-color: rgb(21, 34, 241); stop-opacity: 1;"></stop></linearGradient></defs><g data-v-423bf9ae="" id="75f218b1-a97d-4b5b-8779-7f3e8b9cd5b1" transform="matrix(1.0251621173689862,0,0,1.0251621173689862,-4.2281032144640065,-6.153589590720415)" stroke="none" fill="url(#c60a2749-4f75-4a79-9438-fe9072e7dbed)"><path d="M37.891 47.086l-2.152 3.728 2.152 3.728h4.305l2.153-3.728-2.153-3.728zM57.805 47.086l-2.154 3.728 2.154 3.728h4.304l2.153-3.728-2.153-3.728z"></path><path d="M87.846 34.955l-12.279-1.167-1.962 4.265-7.26-12.573h-7.313L48.668 15.333l-.79 4.392-4.245-7.994-.838 5.527-4.343-7.945-.531 5.317-5.391-8.526 3.456 19.375h-2.331l-7.259 12.573-1.962-4.265-12.28 1.167L5.03 47.326l5.155 11.206 9.349-.889 9.502 16.459-.667 1.068-.784 1.256.784 1.255L37.8 92.782l.695 1.113H61.504l.696-1.113 9.431-15.101.784-1.255-.784-1.256-.668-1.068 9.503-16.459 9.349.889 5.155-11.206-7.124-12.371zM20.075 52.17l-6.587.627-2.765-6.012 3.821-6.636 6.587-.626 2.765 6.011-3.821 6.636zm38.347 36.736H41.577l-7.794-12.479 7.794-12.481h16.845l7.795 12.481-7.795 12.479zm8.605-21.105l-4.827-7.73-.696-1.115H38.496l-.696 1.115-4.829 7.729-5.667-15.26 10.359-16.58h9.331L50 42.967l3.007-7.007h9.824l9.865 16.581-5.669 15.26zm19.485-15.004l-6.587-.627-3.821-6.636 2.766-6.011 6.587.626 3.82 6.636-2.765 6.012z"></path><path d="M62.342 77.235l-1.071-2.112-5.297 2.685H44.271l-4.92-2.669-1.13 2.082 5.749 2.956h12.287z"></path></g><!----></svg>